<svg version="1.2" xmlns="http://www.w3.org/2000/svg" viewBox="0 0 100 125" width="100" height="125">
	<title>noun-workout-plan-5538852</title>
	<style>
		.s0 { fill: #000000 } 
	</style>
	<path class="s0" d="m52 96.7v-3.7c0-1.7 0.8-3.2 1.9-4.2 0.1-1.2 0.5-2.3 1-3.3h-10.4c-1 0-1.9-0.8-1.9-1.9 0-1 0.9-1.9 1.9-1.9h22.5c1 0 1.9 0.9 1.9 1.9q0 0.3-0.1 0.6c0.8 0.9 1.4 2 1.7 3.2h2.4c0.5-2 1.8-3.6 3.5-4.6v-42.3c0-5.2-4.2-9.4-9.4-9.4h-1.9v1.9c0 4.1-3.3 7.5-7.5 7.5h-18.7c-4.2 0-7.5-3.4-7.5-7.5v-1.9h-1.9c-5.2 0-9.4 4.2-9.4 9.4v50.6c0 5.2 4.2 9.4 9.4 9.4h24c-0.9-1-1.5-2.3-1.5-3.8zm-7.5-45h22.5c1 0 1.9 0.9 1.9 1.9 0 1.1-0.9 1.9-1.9 1.9h-22.5c-1 0-1.9-0.8-1.9-1.9 0-1 0.9-1.9 1.9-1.9zm0 15h22.5c1 0 1.9 0.9 1.9 1.9 0 1.1-0.9 1.9-1.9 1.9h-22.5c-1 0-1.9-0.8-1.9-1.9 0-1 0.9-1.9 1.9-1.9zm-5.2 15.4l-5.7 5.7c-0.3 0.3-0.8 0.5-1.3 0.5-0.5 0-0.9-0.2-1.3-0.5l-2.8-2.8c-0.8-0.8-0.8-2 0-2.7 0.7-0.7 1.9-0.7 2.6 0l1.5 1.5 4.3-4.3c0.7-0.7 1.9-0.7 2.7 0 0.7 0.7 0.7 1.9 0 2.6zm0-15l-5.7 5.7c-0.3 0.3-0.8 0.5-1.3 0.5-0.5 0-0.9-0.2-1.3-0.5l-2.8-2.8c-0.8-0.8-0.8-2 0-2.7 0.7-0.7 1.9-0.7 2.6 0l1.5 1.5 4.3-4.3c0.7-0.7 1.9-0.7 2.7 0 0.7 0.7 0.7 1.9 0 2.6zm0-15l-5.7 5.7c-0.3 0.3-0.8 0.5-1.3 0.5-0.5 0-0.9-0.2-1.3-0.5l-2.8-2.8c-0.8-0.8-0.8-2 0-2.7 0.7-0.7 1.9-0.7 2.6 0l1.5 1.5 4.3-4.3c0.7-0.7 1.9-0.7 2.7 0 0.7 0.7 0.7 1.9 0 2.6z"/>
	<path class="s0" d="m77.8 87.1v-1.8c0-2.1-1.7-3.8-3.8-3.8h-1.9c-2 0-3.7 1.7-3.7 3.8v1.8h-9.4v-1.8c0-2.1-1.7-3.8-3.7-3.8h-1.9c-2.1 0-3.8 1.7-3.8 3.8v1.8c-1 0-1.8 0.9-1.8 1.9v3.7c0 1.1 0.8 1.9 1.8 1.9v1.9c0 2.1 1.7 3.8 3.8 3.8h1.9c2 0 3.7-1.7 3.7-3.8v-1.9h9.4v1.9c0 2.1 1.7 3.8 3.7 3.8h1.9c2.1 0 3.8-1.7 3.8-3.8v-1.9c1 0 1.8-0.8 1.8-1.9v-3.7c0-1-0.8-1.9-1.8-1.9z"/>
	<path class="s0" d="m57.6 38.8h-18.7c-2.1 0-3.8-1.7-3.8-3.8v-3.7c0-2.1 1.7-3.8 3.8-3.8h2.9c1.3-2.3 3.8-3.7 6.4-3.7 2.7 0 5.2 1.4 6.5 3.7h2.9c2.1 0 3.8 1.7 3.8 3.8v3.7c0 2.1-1.7 3.8-3.8 3.8z"/>
</svg>